<svg width="50" height="50" viewBox="0 0 50 50" fill="none" xmlns="http://www.w3.org/2000/svg">
<path d="M48.5039 12.3828C48.5039 6.17188 43.416 1.08398 37.2051 1.08398C32.3906 1.08398 28.25 4.14062 26.6387 8.4082H9.43164V2.71484H7.39062V8.41797H1.49219V48.916H44.334V21.123C46.873 19.0527 48.5039 15.8984 48.5039 12.3828ZM37.2051 3.125C42.3906 3.125 46.5703 7.19727 46.4629 12.3828C46.4629 17.4707 42.293 21.6406 37.2051 21.6406C32.1172 21.6406 27.9473 17.4707 27.9473 12.3828C27.9473 7.29492 32.1172 3.125 37.2051 3.125ZM26.082 10.4492C25.9746 11.0742 25.916 11.7285 25.916 12.3828C25.916 14.8926 26.7461 17.2168 28.1523 19.1016H3.42578V10.4492H26.082ZM42.293 46.875H3.42578V21.1328H30.0859V21.123C32.0293 22.7148 34.5195 23.6719 37.2051 23.6719C39.0312 23.6719 40.7598 23.2324 42.293 22.4512V46.875Z" fill="#232323"/>
<path d="M42.498 14.5215L38.2305 11.7676V4.0332H36.2969V12.8906L41.3848 16.25L42.498 14.5215Z" fill="#232323"/>
<path d="M13.1914 29.2773H15.7402V40.2637H18.6895V26.7285H13.1914V29.2773Z" fill="#232323"/>
<path d="M27.0293 26.3184C25.1934 26.3184 23.7773 26.9336 22.8594 28.252C21.9414 29.4727 21.4336 31.2012 21.4336 33.3398C21.4336 35.4785 21.9414 37.1094 22.8594 38.4277C23.7773 39.7461 25.2031 40.3613 27.0293 40.3613C28.9629 40.3613 30.2812 39.7461 31.1992 38.4277C32.1172 37.207 32.625 35.4785 32.625 33.3398C32.625 31.2012 32.1172 29.5703 31.1992 28.252C30.291 26.9336 28.8652 26.3184 27.0293 26.3184ZM29.168 36.6016C28.6602 37.4121 28.0449 37.8223 27.1367 37.8223C26.2187 37.8223 25.5059 37.4121 25.1055 36.6016C24.6953 35.791 24.4902 34.668 24.4902 33.3496C24.4902 32.0312 24.6953 30.9082 25.1055 30.0977C25.5156 29.2871 26.1211 28.877 27.1367 28.877C28.0547 28.877 28.7676 29.2871 29.168 30.0977C29.5781 30.9082 29.7832 32.0312 29.7832 33.3496C29.7832 34.668 29.5781 35.791 29.168 36.6016Z" fill="#232323"/>
</svg>
