<svg width="51" height="50" viewBox="0 0 51 50" fill="none" xmlns="http://www.w3.org/2000/svg">
<g clip-path="url(#clip0_835_133398)">
<path d="M41.2023 1.04395H2.78896C1.43633 1.04395 0.335938 2.48292 0.335938 4.25175V37.0123C0.335938 38.7811 1.43633 40.2201 2.78896 40.2201H27.0061C27.4384 40.2201 27.789 39.7617 27.789 39.1963C27.789 38.6309 27.4385 38.1724 27.0061 38.1724H2.78896C2.29971 38.1724 1.90166 37.6519 1.90166 37.0121V4.25175C1.90166 3.61195 2.29971 3.09143 2.78896 3.09143H41.2023C41.6916 3.09143 42.0897 3.61195 42.0897 4.25175V18.4483C42.0897 19.0136 42.4401 19.4721 42.8726 19.4721C43.3049 19.4721 43.6555 19.0137 43.6555 18.4483V4.25175C43.6554 2.48292 42.555 1.04395 41.2023 1.04395Z" fill="#232323"/>
<path d="M39.5303 20.7002C33.573 20.7002 28.7266 27.038 28.7266 34.8281C28.7266 42.6182 33.5731 48.9561 39.5303 48.9561C45.4874 48.9561 50.334 42.6183 50.334 34.8281C50.334 27.0379 45.4874 20.7002 39.5303 20.7002ZM39.5303 46.9086C34.4364 46.9086 30.2923 41.4893 30.2923 34.8281C30.2923 28.1669 34.4364 22.7477 39.5303 22.7477C44.6241 22.7477 48.7683 28.1669 48.7683 34.8281C48.7683 41.4893 44.624 46.9086 39.5303 46.9086Z" fill="#232323"/>
<path d="M13.6462 8.6875H6.96562C6.07344 8.6875 5.34766 9.6366 5.34766 10.8033V17.3554C5.34766 18.5221 6.07344 19.4712 6.96562 19.4712H13.6462C14.5384 19.4712 15.2642 18.5221 15.2642 17.3554V10.8033C15.2642 9.6366 14.5384 8.6875 13.6462 8.6875ZM8.68789 17.4236H6.96562C6.93682 17.4236 6.91348 17.3931 6.91348 17.3554V10.8033C6.91348 10.7656 6.93682 10.7351 6.96562 10.7351H8.68799V17.4236H8.68789ZM13.6983 17.3554C13.6983 17.3931 13.675 17.4236 13.6462 17.4236H10.2537V15.1031H11.141C11.5733 15.1031 11.9239 14.6448 11.9239 14.0793C11.9239 13.5138 11.5734 13.0555 11.141 13.0555H10.2537V10.735H13.6462C13.675 10.735 13.6983 10.7655 13.6983 10.8032V17.3554Z" fill="#232323"/>
<path d="M34.1059 7.5957C33.1813 7.5957 32.3209 7.95979 31.6027 8.58273C30.8634 7.94204 29.9925 7.5957 29.0954 7.5957C26.5917 7.5957 24.5547 10.2594 24.5547 13.5336C24.5547 16.8078 26.5916 19.4714 29.0954 19.4714C30.0202 19.4714 30.881 19.1071 31.5994 18.4836C32.3389 19.1238 33.2106 19.4714 34.1059 19.4714C36.6096 19.4714 38.6466 16.8078 38.6466 13.5336C38.6466 10.2594 36.6097 7.5957 34.1059 7.5957ZM30.4269 17.011C30.0259 17.2745 29.5738 17.4238 29.0954 17.4238C27.455 17.4238 26.1205 15.6786 26.1205 13.5336C26.1205 11.3885 27.4551 9.64319 29.0954 9.64319C29.5623 9.64319 30.0181 9.78711 30.4286 10.0562C29.8861 11.0344 29.5651 12.2355 29.5651 13.5334C29.5651 14.7959 29.8723 16.0082 30.4269 17.011ZM34.1059 17.4238C33.6397 17.4238 33.1836 17.2796 32.7729 17.0104C33.3152 16.0322 33.6361 14.8313 33.6361 13.5334C33.6361 12.9681 33.2856 12.5096 32.8532 12.5096C32.4208 12.5096 32.0703 12.968 32.0703 13.5334C32.0703 14.3044 31.8973 15.0232 31.6002 15.6283C31.2973 15.0091 31.1309 14.2849 31.1309 13.5334C31.1309 11.3883 32.4654 9.64306 34.1058 9.64306C35.7461 9.64306 37.0808 11.3883 37.0808 13.5334C37.0808 15.6786 35.7463 17.4238 34.1059 17.4238Z" fill="#232323"/>
<path d="M12.8111 25.0684H6.13057C5.69824 25.0684 5.34766 25.5267 5.34766 26.0922C5.34766 26.6576 5.69814 27.116 6.13057 27.116H12.8111C13.2435 27.116 13.594 26.6576 13.594 26.0922C13.594 25.5267 13.2435 25.0684 12.8111 25.0684Z" fill="#232323"/>
<path d="M26.1723 31.6201H6.13057C5.69824 31.6201 5.34766 32.0784 5.34766 32.6439C5.34766 33.2094 5.69814 33.6677 6.13057 33.6677H26.1724C26.6047 33.6677 26.9553 33.2094 26.9553 32.6439C26.9553 32.0784 26.6047 31.6201 26.1723 31.6201Z" fill="#232323"/>
<path d="M22.8307 25.0684H16.1501C15.7178 25.0684 15.3672 25.5267 15.3672 26.0922C15.3672 26.6576 15.7177 27.116 16.1501 27.116H22.8307C23.263 27.116 23.6136 26.6576 23.6136 26.0922C23.6136 25.5267 23.263 25.0684 22.8307 25.0684Z" fill="#232323"/>
<path d="M27.8397 25.0684H26.1696C25.7373 25.0684 25.3867 25.5267 25.3867 26.0922C25.3867 26.6576 25.7372 27.116 26.1696 27.116H27.8397C28.2721 27.116 28.6227 26.6576 28.6227 26.0922C28.6227 25.5267 28.2722 25.0684 27.8397 25.0684Z" fill="#232323"/>
<path d="M45.9298 29.7364C45.624 29.3366 45.1283 29.3366 44.8227 29.7364L37.8606 38.8406L34.2388 34.1044C33.933 33.7046 33.4373 33.7046 33.1317 34.1044C32.8259 34.5042 32.8259 35.1523 33.1317 35.5522L37.3071 41.0123C37.4599 41.2123 37.6603 41.3122 37.8606 41.3122C38.0609 41.3122 38.2613 41.2123 38.4141 41.0123L45.9297 31.1842C46.2356 30.7843 46.2356 30.1362 45.9298 29.7364Z" fill="#232323"/>
</g>
<defs>
<clipPath id="clip0_835_133398">
<rect width="50" height="50" fill="white" transform="translate(0.335938)"/>
</clipPath>
</defs>
</svg>
