<svg width="51" height="50" viewBox="0 0 51 50" fill="none" xmlns="http://www.w3.org/2000/svg">
<g clip-path="url(#clip0_835_133429)">
<path d="M48.5057 3.71576L46.8993 1.75964C45.2021 -0.298464 42.1487 -0.594205 40.0933 1.10024L20.7634 17.0139C20.4939 16.9886 20.2221 16.9749 19.9482 16.9749C17.9571 16.9749 16.0127 17.6734 14.4734 18.9413C12.7803 20.3342 9.21197 24.3916 6.39905 28.5173C2.59379 34.0984 1.48146 37.7081 2.99902 39.5534C3.61914 40.306 4.62679 40.6874 5.99393 40.6874C11.5739 40.6874 22.7975 34.4179 25.4319 32.2483C27.2087 30.7856 28.3092 28.7184 28.5311 26.4276L47.8477 10.5224C48.8455 9.70162 49.4635 8.54105 49.5875 7.25465C49.7116 5.96814 49.3269 4.71069 48.5057 3.71576ZM26.4578 26.2252C26.2899 27.9629 25.4554 29.5307 24.1077 30.6403C21.3817 32.8851 10.6931 38.6042 5.99403 38.6042C5.96986 38.6042 5.94653 38.6037 5.92278 38.6034L21.2045 25.9063C21.647 25.5387 21.7077 24.8819 21.3401 24.4394C20.9724 23.9969 20.3155 23.936 19.8731 24.3039L4.45501 37.1143C4.617 35.8381 5.5261 33.4963 8.12057 29.6911C10.7444 25.8428 14.2082 21.8577 15.7978 20.5499C16.9652 19.5882 18.4392 19.0586 19.9483 19.0586C21.9108 19.0586 23.7502 19.9266 24.9957 21.4411C26.1063 22.7884 26.6255 24.4874 26.4578 26.2252ZM28.394 23.8421C28.1142 22.4882 27.5082 21.2137 26.604 20.1168C25.6992 19.0165 24.5559 18.1755 23.279 17.6415L25.9633 15.4317L30.9786 21.7139L28.394 23.8421ZM47.5138 7.05453C47.4431 7.78633 47.0917 8.44657 46.5238 8.91367L32.5871 20.3894L27.5718 14.1075L41.418 2.70843C42.5877 1.74422 44.3254 1.91319 45.2905 3.08365L46.8973 5.04018C47.3655 5.60719 47.5844 6.32263 47.5138 7.05453Z" fill="#232323"/>
<path d="M35.4868 40.5927C32.4895 38.3396 27.5444 38.779 20.7892 41.8986C11.7844 46.0568 7.42426 45.5262 5.35209 44.349C3.37066 43.2232 3.14002 41.3121 3.12961 41.2153C3.07544 40.6459 2.57115 40.2257 2.00123 40.2764C1.42819 40.3269 1.00452 40.8323 1.05484 41.4054C1.06577 41.5286 1.35381 44.4401 4.27007 46.1301C7.89698 48.232 13.7488 47.4446 21.6625 43.79C27.5773 41.0587 31.9226 40.5271 34.2281 42.2531C36.8843 44.2414 36.2495 48.7584 36.243 48.8019C36.1565 49.3707 36.5475 49.9019 37.1163 49.9885C37.1694 49.9966 37.2221 50.0005 37.2743 50.0005C37.7804 50.0005 38.2243 49.631 38.3028 49.1153C38.3386 48.8806 39.1355 43.3356 35.4868 40.5927Z" fill="#232323"/>
</g>
<defs>
<clipPath id="clip0_835_133429">
<rect width="50" height="50" fill="white" transform="translate(0.332031)"/>
</clipPath>
</defs>
</svg>
