<svg width="51" height="50" viewBox="0 0 51 50" fill="none" xmlns="http://www.w3.org/2000/svg">
<g clip-path="url(#clip0_835_133446)">
<path d="M25.6782 50.0295C32.3597 50.0295 38.6395 47.4254 43.3717 42.6932C47.7615 38.3033 50.3508 32.47 50.6633 26.2646C50.6931 25.6545 50.2169 25.1188 49.6068 25.0891C48.9967 25.0593 48.4609 25.5355 48.4312 26.1456C48.1484 31.7855 45.7824 37.098 41.7794 41.101C37.4788 45.4016 31.7496 47.7825 25.6633 47.7825C19.577 47.7825 13.8478 45.4164 9.54725 41.101C0.663317 32.217 0.663317 17.7527 9.54725 8.86881C17.1217 1.29441 28.9074 0.0295268 37.8657 5.72893L35.3508 8.80929L42.5681 8.08012L41.8389 0.862861L39.2943 3.98786C29.4282 -2.44071 16.3478 -1.08654 7.96987 7.29143C-1.79204 17.0533 -1.79204 32.9164 7.96987 42.6783C12.7169 47.4254 18.9967 50.0295 25.6782 50.0295Z" fill="#232323"/>
<path d="M37.4771 19.8511C37.4771 19.8362 37.4771 19.8213 37.4622 19.8213C37.4622 19.7915 37.4474 19.7766 37.4474 19.7469C37.4474 19.732 37.4325 19.7022 37.4325 19.6874C37.4325 19.6725 37.4176 19.6576 37.4176 19.6427C37.3878 19.5683 37.3581 19.5088 37.3134 19.4493L32.5813 12.4999C32.373 12.1874 32.0307 12.0088 31.6587 12.0088H19.6646C19.2926 12.0088 18.9503 12.1874 18.742 12.4999L14.0099 19.4344C13.9652 19.4939 13.9355 19.5683 13.9057 19.6278C13.9057 19.6427 13.8908 19.6576 13.8908 19.6725C13.8759 19.6874 13.8759 19.7171 13.8759 19.732C13.8759 19.7618 13.861 19.7766 13.861 19.8064C13.861 19.8213 13.8611 19.8362 13.8462 19.8362C13.8313 19.9106 13.8164 19.985 13.8164 20.0594V36.86C13.8164 37.4701 14.3224 37.9761 14.9325 37.9761H36.3759C36.986 37.9761 37.492 37.4701 37.492 36.86V20.0743C37.492 19.985 37.492 19.9106 37.4771 19.8511ZM20.2599 14.2409H31.0634L34.2628 18.9433H17.0456L20.2599 14.2409ZM35.2599 35.7588H16.0634V21.1903H35.2747V35.7588H35.2599Z" fill="#232323"/>
</g>
<defs>
<clipPath id="clip0_835_133446">
<rect width="50" height="50" fill="white" transform="translate(0.664062)"/>
</clipPath>
</defs>
</svg>
